<?xml version="1.0" standalone="no"?>
<!DOCTYPE svg PUBLIC "-//W3C//DTD SVG 20010904//EN"
 "http://www.w3.org/TR/2001/REC-SVG-20010904/DTD/svg10.dtd">
<svg version="1.0" xmlns="http://www.w3.org/2000/svg"
 width="699.000000pt" height="1280.000000pt" viewBox="0 0 699.000000 1280.000000"
 preserveAspectRatio="xMidYMid meet">
<metadata>
Created by potrace 1.15, written by Peter Selinger 2001-2017
</metadata>
<g transform="translate(0.000000,1280.000000) scale(0.100000,-0.100000)"
fill="#000000" stroke="none">
<path d="M3845 12794 c-22 -2 -94 -8 -160 -15 -546 -49 -1134 -235 -1610 -508
-335 -192 -602 -397 -880 -676 -662 -661 -1059 -1489 -1172 -2440 -24 -209
-24 -679 1 -890 138 -1182 738 -2201 1700 -2891 566 -405 1242 -657 1962 -732
l162 -17 -85 -155 c-107 -196 -265 -475 -317 -560 -21 -36 -60 -101 -86 -145
-26 -44 -84 -141 -130 -215 -46 -74 -120 -196 -165 -270 -45 -74 -113 -184
-150 -245 -82 -136 -100 -155 -139 -155 -55 0 -70 -10 -105 -68 -50 -81 -89
-121 -246 -253 -78 -64 -147 -125 -155 -134 -8 -10 -42 -31 -75 -46 -33 -16
-85 -47 -115 -69 -54 -40 -57 -41 -102 -31 -37 9 -54 8 -82 -4 -43 -18 -46 -8
-10 34 33 40 26 59 -26 67 -22 4 -40 10 -40 15 0 5 21 20 48 33 76 39 91 63
78 126 -4 20 -3 47 4 64 6 18 8 57 4 103 -7 73 -7 74 -49 103 -64 44 -85 134
-44 191 17 25 20 38 14 75 -3 24 -9 44 -12 44 -3 0 -14 -12 -25 -26 -25 -31
-38 -18 -38 36 0 39 -23 80 -45 80 -8 0 -12 -11 -11 -32 1 -29 -2 -33 -24 -31
-14 0 -45 6 -70 13 -25 6 -67 9 -95 5 -78 -10 -215 -52 -256 -80 -40 -26 -89
-84 -89 -104 0 -7 -22 -36 -50 -65 -38 -41 -51 -62 -56 -97 -4 -30 -19 -59
-44 -89 -51 -63 -60 -82 -60 -134 0 -42 -3 -48 -40 -71 -23 -14 -46 -39 -54
-59 -16 -37 -72 -66 -131 -66 -19 0 -35 -4 -35 -8 0 -17 26 -32 56 -32 34 0
58 -20 33 -29 -8 -2 -30 -22 -50 -43 -20 -22 -47 -45 -60 -51 -13 -7 -40 -35
-61 -62 -57 -75 -49 -120 9 -51 24 29 36 35 86 41 46 5 57 4 57 -8 0 -19 -27
-42 -73 -61 -35 -14 -57 -45 -57 -82 0 -20 28 -17 39 5 7 12 25 21 53 24 24 3
55 8 71 12 l27 7 -26 -50 -26 -50 30 -68 c17 -38 34 -67 38 -64 4 3 6 29 5 57
-2 33 2 53 8 53 6 0 11 -10 11 -23 0 -23 25 -67 38 -67 4 0 6 20 4 44 -4 42
-3 44 40 67 33 19 50 37 73 84 l30 60 5 -40 6 -40 37 80 c32 68 40 77 48 62 6
-10 9 -45 7 -78 -1 -32 -2 -59 0 -59 2 0 11 4 21 10 26 13 57 -45 46 -86 -4
-16 -9 -76 -10 -134 -3 -115 14 -219 44 -278 10 -20 24 -52 30 -69 6 -18 16
-46 23 -61 10 -25 8 -36 -13 -78 -13 -27 -29 -74 -34 -104 -9 -50 -7 -67 27
-187 43 -152 48 -164 83 -187 22 -15 25 -23 25 -77 l0 -60 73 -33 c39 -18 113
-47 162 -64 50 -17 128 -45 175 -63 205 -75 325 -109 355 -100 53 15 105 -26
105 -81 0 -19 16 -35 67 -71 68 -46 68 -46 97 -29 18 10 34 32 43 57 16 46 22
51 80 60 43 6 45 5 108 -54 92 -86 267 -166 413 -190 71 -11 127 -46 186 -116
33 -41 41 -45 80 -45 24 0 65 10 92 21 39 18 59 20 112 16 58 -6 71 -4 112 19
58 31 76 64 58 102 -12 25 -18 27 -91 30 -42 2 -77 7 -77 12 0 5 12 17 28 27
29 18 52 42 52 54 0 4 -7 15 -16 24 -14 13 -31 15 -114 9 l-98 -7 -4 29 c-3
28 -5 29 -59 32 -54 3 -57 2 -63 -23 -6 -24 -10 -26 -39 -20 -38 8 -280 106
-350 142 -106 53 -290 184 -284 202 1 3 -5 32 -12 63 l-14 57 57 61 c31 34 56
65 56 69 0 22 -34 29 -145 33 -100 3 -127 8 -163 26 -41 22 -43 25 -37 55 4
18 22 66 40 107 18 41 45 102 58 136 14 33 46 103 70 155 67 144 202 438 223
489 10 25 44 70 75 101 60 60 89 122 89 192 0 28 17 70 61 155 77 145 203 375
279 507 32 55 127 219 211 365 84 146 177 310 207 365 125 233 202 383 202
395 0 37 310 600 342 621 5 3 64 9 131 12 560 29 1213 225 1733 522 279 160
647 437 829 625 l40 41 -145 -75 c-229 -118 -447 -202 -700 -270 -446 -119
-970 -138 -1450 -50 -1170 213 -2158 1065 -2545 2194 -128 374 -179 686 -179
1090 0 547 105 1000 345 1485 319 648 843 1175 1491 1501 476 239 966 354
1508 354 428 0 833 -78 1227 -236 123 -49 333 -149 413 -196 33 -20 32 -18
-15 31 -77 81 -255 233 -405 345 -574 429 -1250 696 -1985 782 -121 14 -600
27 -690 18z m294 -8256 c-29 -46 -65 -102 -81 -126 -17 -24 -51 -87 -76 -140
-25 -53 -59 -119 -75 -147 -17 -27 -43 -81 -59 -120 -30 -74 -135 -268 -198
-370 -21 -33 -74 -125 -117 -205 -74 -133 -111 -200 -273 -485 -31 -55 -96
-167 -144 -248 -47 -82 -119 -210 -159 -285 -95 -180 -167 -257 -283 -302 -43
-16 -82 -30 -86 -30 -19 0 -3 48 66 196 40 88 88 202 107 254 27 78 43 106 86
152 55 60 64 88 43 142 -8 21 -3 37 26 93 20 37 56 95 79 128 23 33 81 125
127 205 47 80 99 168 116 195 16 28 82 138 145 245 63 107 138 232 166 276 28
45 75 128 105 185 29 57 87 160 128 229 41 69 86 151 101 183 l26 57 141 0
140 0 -51 -82z m-1379 -1888 c0 -5 -4 -11 -9 -14 -5 -3 -28 -54 -51 -113 -24
-60 -64 -151 -91 -204 -26 -53 -57 -124 -68 -157 -34 -100 -41 -111 -80 -122
-20 -5 -103 -28 -186 -51 -82 -22 -171 -48 -197 -58 -33 -13 -49 -16 -57 -8
-23 23 -9 47 52 94 210 161 456 392 555 523 78 105 102 129 118 123 8 -3 14
-9 14 -13z m-10 -672 c0 -7 -40 -96 -89 -198 -251 -522 -291 -610 -306 -662
-9 -32 -21 -60 -26 -64 -5 -3 -28 9 -50 27 -46 36 -46 36 1 159 15 41 50 136
76 210 26 74 76 203 112 286 l64 152 72 45 c39 24 78 47 86 50 28 10 60 7 60
-5z m-318 -200 c-17 -40 -60 -154 -96 -253 -96 -268 -138 -365 -158 -365 -25
0 -127 94 -164 151 -28 43 -50 114 -59 186 -2 18 5 37 19 53 13 14 28 44 35
67 10 35 20 47 69 76 31 19 100 49 152 66 52 17 122 49 155 70 33 21 64 35 69
30 5 -5 -4 -39 -22 -81z"/>
</g>
</svg>
