<?xml version="1.0" encoding="utf-8"?>
<!-- Svg Vector Icons : http://www.onlinewebfonts.com/icon -->
<!DOCTYPE svg PUBLIC "-//W3C//DTD SVG 1.1//EN" "http://www.w3.org/Graphics/SVG/1.1/DTD/svg11.dtd">
<svg version="1.1" xmlns="http://www.w3.org/2000/svg" xmlns:xlink="http://www.w3.org/1999/xlink" x="0px" y="0px" viewBox="0 0 256 256" enable-background="new 0 0 256 256" xml:space="preserve">
<metadata> Svg Vector Icons : http://www.onlinewebfonts.com/icon </metadata>
<g><g><g><path fill="#000000" d="M132.4,25.6c-1.9,0.8-3.8,3.2-4.1,5c-0.1,0.8-0.2,8.7-0.1,17.7c0.1,15.5,0.2,16.3,1.1,17.5c1.8,2.4,3.3,3.2,6.2,3.2c2.9,0,4.4-0.7,6.2-3.2c0.9-1.2,1-1.8,1-18.7s0-17.5-1-18.7c-0.5-0.7-1.5-1.7-2.1-2.2C137.9,25,134.2,24.7,132.4,25.6z"/><path fill="#000000" d="M102.9,40.3c-1.9,0.8-3.8,3.2-4.1,5c-0.1,0.8-0.2,8.7-0.1,17.7c0.1,15.5,0.2,16.3,1.1,17.4c1.8,2.4,3.3,3.2,6.2,3.2c2.9,0,4.4-0.7,6.2-3.2c0.9-1.2,1-1.8,1-18.7c0-16.9,0-17.5-1-18.7c-0.5-0.7-1.5-1.7-2.1-2.2C108.4,39.7,104.7,39.4,102.9,40.3z"/><path fill="#000000" d="M161.8,40.3c-1.9,0.8-3.8,3.2-4.1,5c-0.1,0.8-0.2,8.7-0.1,17.7c0.1,15.5,0.2,16.3,1.1,17.4c1.8,2.4,3.3,3.2,6.2,3.2s4.4-0.7,6.2-3.2c0.9-1.2,1-1.8,1-18.7c0-16.9,0-17.5-1-18.7c-0.5-0.7-1.5-1.7-2.1-2.2C167.4,39.7,163.7,39.4,161.8,40.3z"/><path fill="#000000" d="M121.6,99.3c-8.1,1.7-16,7.9-19.8,15.4c-1.8,3.8-3.2,8.8-3.3,11.8c0,1.5,0,1.5-2,1.5c-1.9,0-2-0.1-4.3-3.1c-5.3-7.1-14.2-11.6-23.2-11.6c-10.9,0-21.4,6.5-26.2,16.1c-1.8,3.8-3.2,8.8-3.3,11.8v1.5H128h88.4v-1.5c0-3-1.4-8-3.3-11.8c-4.8-9.6-15.3-16.1-26.2-16.1c-9,0-18,4.6-23.3,11.7c-2.2,2.9-2.3,3-4.2,3c-1.9,0-2,0-2-1.5c0-3-1.4-8-3.3-11.8C148.3,102.9,134.7,96.5,121.6,99.3z"/><path fill="#000000" d="M10.3,162.2c2.3,34.1,27,61.6,60.8,67.9c4.3,0.8,7.9,0.9,56.9,0.9s52.5,0,56.9-0.9c33.7-6.3,58.5-33.8,60.8-67.9l0.3-4.7H128H10L10.3,162.2z"/></g></g></g>
</svg>